<svg height="31" node-id="1" sillyvg="true" template-height="31" template-width="37" version="1.1" viewBox="0 0 37 31" width="37" xmlns="http://www.w3.org/2000/svg" xmlns:xlink="http://www.w3.org/1999/xlink"><defs node-id="29"></defs><g node-id="31"><g node-id="32"><path d="M 12.10 2.32 L 12.57 2.80 L 13.79 4.11 L 13.98 4.30 L 14.17 4.49 L 14.33 4.63 L 14.39 4.69 L 14.40 4.73 L 14.57 4.71 L 15.78 4.51 L 17.25 4.32 L 18.10 4.28 L 18.97 4.32 L 20.11 4.46 L 20.43 4.51 L 20.91 4.59 L 21.36 4.67 L 21.70 4.72 L 21.90 4.73 L 21.83 4.71 L 21.85 4.69 L 22.14 4.38 L 22.23 4.28 L 22.51 3.93 L 23.54 2.62 L 23.87 2.21 L 24.96 1.04 L 25.40 0.76 L 25.78 0.68 L 26.36 0.99 L 27.09 2.06 L 27.67 3.44 L 28.19 5.15 L 28.53 6.89 L 28.65 8.38 L 28.50 8.73 L 28.15 8.88 L 27.79 8.73 L 27.65 8.38 L 27.25 5.66 L 26.45 2.93 L 25.99 1.90 L 25.78 1.68 L 24.46 3.07 L 23.29 4.56 L 22.99 4.92 L 22.33 5.59 L 21.90 5.73 L 21.72 5.72 L 21.20 5.66 L 20.27 5.50 L 19.67 5.41 L 18.89 5.32 L 18.10 5.28 L 17.33 5.32 L 15.94 5.50 L 14.99 5.66 L 14.36 5.73 L 13.99 5.63 L 13.40 5.13 L 12.96 4.68 L 11.95 3.61 L 11.74 3.39 L 10.53 2.25 L 10.13 2.03 L 9.96 2.25 L 9.50 3.64 L 8.56 8.20 L 8.35 8.52 L 7.98 8.61 L 7.66 8.41 L 7.57 8.04 L 7.69 7.33 L 8.29 4.31 L 8.80 2.55 L 9.49 1.32 L 10.13 1.03 L 10.86 1.27 L 12.10 2.32 Z" fill="#333333" fill-rule="nonzero" group-id="1,2" id="路径-17" node-id="7" stroke="none" target-height="8.2" target-width="21.08" target-x="7.57" target-y="0.68"></path><path d="M 6.33 8.85 L 6.67 8.69 L 7.03 8.82 L 7.20 9.16 L 7.07 9.52 L 5.07 12.05 L 3.69 14.53 L 2.85 17.00 L 2.51 19.50 L 2.65 22.08 L 3.17 23.96 L 4.10 25.50 L 5.49 26.76 L 7.42 27.77 L 10.04 28.48 L 13.55 28.81 L 13.90 28.96 L 14.04 29.32 L 13.88 29.67 L 13.52 29.81 L 9.79 29.45 L 6.97 28.67 L 4.86 27.55 L 3.33 26.13 L 2.27 24.38 L 1.67 22.22 L 1.51 19.46 L 1.88 16.78 L 2.77 14.15 L 4.23 11.51 L 6.33 8.85 Z" fill="#333333" fill-rule="nonzero" group-id="1,2" id="路径-18" node-id="8" stroke="none" target-height="21.119999" target-width="12.53" target-x="1.51" target-y="8.69"></path><g node-id="33"><path d="M 30.21 8.85 L 29.86 8.69 L 29.50 8.82 L 29.34 9.16 L 29.47 9.52 L 31.47 12.05 L 32.85 14.53 L 33.69 17.00 L 34.03 19.50 L 33.88 22.08 L 33.37 23.96 L 32.43 25.50 L 31.05 26.76 L 29.12 27.77 L 26.50 28.48 L 22.99 28.81 L 22.64 28.96 L 22.50 29.32 L 22.66 29.67 L 23.01 29.81 L 26.75 29.45 L 29.57 28.67 L 31.67 27.55 L 33.21 26.13 L 34.27 24.38 L 34.87 22.22 L 35.02 19.46 L 34.66 16.78 L 33.77 14.15 L 32.31 11.51 L 30.21 8.85 Z" fill="#333333" fill-rule="nonzero" group-id="1,2,3" id="路径-18备份" node-id="9" stroke="none" target-height="21.119999" target-width="12.52" target-x="22.5" target-y="8.69"></path></g><g node-id="34"><path d="M 0.53 14.03 L 0.62 14.05 L 4.62 15.05 L 4.93 15.27 L 4.99 15.65 L 4.79 15.94 L 4.47 16.03 L 4.38 16.02 L 0.38 15.02 L 0.07 14.79 L 0.01 14.41 L 0.21 14.13 L 0.53 14.03 Z" fill="#333333" fill-rule="nonzero" group-id="1,2,4" id="直线-2" node-id="11" stroke="none" target-height="2.000001" target-width="4.9799995" target-x="0.01" target-y="14.03"></path><path d="M 4.44 16.54 L 4.81 16.64 L 5.00 16.97 L 4.92 17.31 L 4.65 17.51 L 4.56 17.53 L 0.56 18.03 L 0.19 17.93 L 0.00 17.59 L 0.08 17.26 L 0.35 17.06 L 0.44 17.04 L 4.44 16.54 Z" fill="#333333" fill-rule="nonzero" group-id="1,2,4" id="直线-2备份" node-id="12" stroke="none" target-height="1.4899998" target-width="5" target-x="0" target-y="16.54"></path></g><g node-id="35"><path d="M 36.47 14.03 L 36.38 14.05 L 32.38 15.05 L 32.07 15.27 L 32.01 15.65 L 32.21 15.94 L 32.53 16.03 L 32.62 16.02 L 36.62 15.02 L 36.93 14.79 L 36.99 14.41 L 36.79 14.13 L 36.47 14.03 Z" fill="#333333" fill-rule="nonzero" group-id="1,2,5" id="直线-2备份-2" node-id="14" stroke="none" target-height="2.000001" target-width="4.9800034" target-x="32.01" target-y="14.03"></path><path d="M 32.56 16.54 L 32.19 16.64 L 32.00 16.97 L 32.08 17.31 L 32.35 17.51 L 32.44 17.53 L 36.44 18.03 L 36.81 17.93 L 37.00 17.59 L 36.92 17.26 L 36.65 17.06 L 36.56 17.04 L 32.56 16.54 Z" fill="#333333" fill-rule="nonzero" group-id="1,2,5" id="直线-2备份-3" node-id="15" stroke="none" target-height="1.4899998" target-width="5" target-x="32" target-y="16.54"></path></g><path d="M 10.59 16.53 L 11.30 16.24 L 11.59 15.53 L 11.30 14.83 L 10.59 14.53 L 9.89 14.83 L 9.59 15.53 L 9.89 16.24 L 10.59 16.53 Z" fill="#333333" fill-rule="evenodd" group-id="1,2" id="椭圆形" node-id="16" stroke="none" target-height="2.000001" target-width="2" target-x="9.59" target-y="14.53"></path><path d="M 8.00 20.03 L 8.78 19.87 L 9.41 19.45 L 9.84 18.82 L 10.00 18.03 L 9.84 17.25 L 9.41 16.62 L 8.78 16.19 L 8.00 16.03 L 7.22 16.19 L 6.59 16.62 L 6.16 17.25 L 6.00 18.03 L 6.16 18.82 L 6.59 19.45 L 7.22 19.87 L 8.00 20.03 Z" fill="#f6b2b1" fill-rule="evenodd" group-id="1,2" id="椭圆形备份-6" node-id="17" stroke="none" target-height="4" target-width="4" target-x="6" target-y="16.03"></path><path d="M 28.00 20.03 L 28.78 19.87 L 29.41 19.45 L 29.84 18.82 L 30.00 18.03 L 29.84 17.25 L 29.41 16.62 L 28.78 16.19 L 28.00 16.03 L 27.22 16.19 L 26.59 16.62 L 26.16 17.25 L 26.00 18.03 L 26.16 18.82 L 26.59 19.45 L 27.22 19.87 L 28.00 20.03 Z" fill="#f6b2b1" fill-rule="evenodd" group-id="1,2" id="椭圆形备份-7" node-id="18" stroke="none" target-height="4" target-width="4" target-x="26" target-y="16.03"></path><path d="M 25.37 16.53 L 26.07 16.24 L 26.37 15.53 L 26.07 14.83 L 25.37 14.53 L 24.66 14.83 L 24.37 15.53 L 24.66 16.24 L 25.37 16.53 Z" fill="#333333" fill-rule="evenodd" group-id="1,2" id="椭圆形备份-5" node-id="19" stroke="none" target-height="2.000001" target-width="2" target-x="24.37" target-y="14.53"></path><path d="M 21.57 12.42 L 21.07 11.88 L 20.81 10.93 L 20.92 10.56 L 21.26 10.38 L 21.63 10.49 L 21.81 10.83 L 21.93 11.38 L 22.07 11.55 L 22.30 11.59 L 22.83 11.42 L 23.22 11.41 L 23.50 11.67 L 23.51 12.06 L 23.25 12.34 L 22.30 12.59 L 21.57 12.42 Z" fill="#333333" fill-rule="nonzero" group-id="1,2,6" id="直线-2备份-7" node-id="20" stroke="none" target-height="2.21" target-width="2.7000008" target-x="20.81" target-y="10.38"></path><path d="M 14.43 12.42 L 14.93 11.88 L 15.19 10.93 L 15.08 10.56 L 14.74 10.38 L 14.37 10.49 L 14.19 10.83 L 14.07 11.38 L 13.93 11.55 L 13.70 11.59 L 13.17 11.42 L 12.78 11.41 L 12.50 11.67 L 12.49 12.06 L 12.75 12.34 L 13.70 12.59 L 14.43 12.42 Z" fill="#333333" fill-rule="nonzero" group-id="1,2,7" id="直线-2备份-8" node-id="21" stroke="none" target-height="2.21" target-width="2.6999998" target-x="12.49" target-y="10.38"></path><path d="M 18.00 16.03 L 18.68 15.86 L 18.86 15.53 L 18.68 15.20 L 18.00 15.03 L 17.34 15.20 L 17.18 15.53 L 17.34 15.86 L 18.00 16.03 Z" fill="#333333" fill-rule="evenodd" group-id="1,2,8" id="椭圆形备份-8" node-id="23" stroke="none" target-height="1.000001" target-width="1.6800003" target-x="17.18" target-y="15.03"></path><path d="M 18.50 16.31 L 18.34 17.09 L 17.92 17.72 L 17.29 18.15 L 16.50 18.31 L 15.75 18.16 L 15.14 17.77 L 14.70 17.19 L 14.51 16.46 L 14.50 16.31 L 14.50 15.69 L 14.65 15.33 L 15.00 15.19 L 15.32 15.30 L 15.49 15.60 L 15.50 15.69 L 15.50 16.31 L 15.79 17.02 L 16.50 17.31 L 17.17 17.05 L 17.50 16.43 L 17.50 16.31 L 17.50 15.69 L 17.65 15.33 L 18.00 15.19 L 18.32 15.30 L 18.49 15.60 L 18.50 15.69 L 18.50 16.31 Z" fill="#333333" fill-rule="nonzero" group-id="1,2,8,10" id="矩形" node-id="24" stroke="none" target-height="3.12" target-width="4" target-x="14.5" target-y="15.19"></path><path d="M 21.50 16.31 L 21.34 17.09 L 20.92 17.72 L 20.29 18.15 L 19.50 18.31 L 18.75 18.16 L 18.14 17.77 L 17.70 17.19 L 17.51 16.46 L 17.50 16.31 L 17.50 15.69 L 17.65 15.33 L 18.00 15.19 L 18.32 15.30 L 18.49 15.60 L 18.50 15.69 L 18.50 16.31 L 18.79 17.02 L 19.50 17.31 L 20.17 17.05 L 20.50 16.43 L 20.50 16.31 L 20.50 15.69 L 20.65 15.33 L 21.00 15.19 L 21.32 15.30 L 21.49 15.60 L 21.50 15.69 L 21.50 16.31 Z" fill="#333333" fill-rule="nonzero" group-id="1,2,8,11" id="矩形备份-11" node-id="25" stroke="none" target-height="3.12" target-width="4" target-x="17.5" target-y="15.19"></path><path d="M 10.35 4.31 L 9.97 4.73 L 9.59 5.91 L 9.37 7.11 L 9.38 7.58 L 9.52 7.77 L 10.29 7.58 L 11.43 7.00 L 12.07 6.38 L 11.74 5.60 L 10.97 4.68 L 10.35 4.31 Z" fill="#f6b2b1" fill-rule="evenodd" group-id="1,2" id="路径-19" node-id="26" stroke="none" target-height="3.46" target-width="2.6999998" target-x="9.37" target-y="4.31"></path><path d="M 25.72 4.31 L 26.10 4.73 L 26.48 5.91 L 26.70 7.11 L 26.69 7.58 L 26.55 7.77 L 25.78 7.58 L 24.64 7.00 L 24.00 6.38 L 24.33 5.60 L 25.10 4.68 L 25.72 4.31 Z" fill="#f6b2b1" fill-rule="evenodd" group-id="1,2,9" id="路径-19备份" node-id="27" stroke="none" target-height="3.46" target-width="2.7000008" target-x="24" target-y="4.31"></path></g></g></svg>