<svg height="43" node-id="1" sillyvg="true" template-height="43" template-width="43" version="1.1" viewBox="0 0 43 43" width="43" xmlns="http://www.w3.org/2000/svg" xmlns:xlink="http://www.w3.org/1999/xlink"><defs node-id="27"></defs><g node-id="29"><g node-id="30"><g node-id="31"><path d="M 19.64 4.91 L 19.80 5.56 L 20.21 7.31 L 20.28 7.57 L 20.35 7.83 L 20.41 8.03 L 20.44 8.10 L 20.43 8.15 L 20.58 8.22 L 21.73 8.65 L 23.10 9.22 L 23.86 9.61 L 24.59 10.08 L 25.50 10.77 L 25.76 10.98 L 26.13 11.28 L 26.48 11.57 L 26.75 11.79 L 26.92 11.90 L 26.87 11.84 L 26.90 11.84 L 27.30 11.72 L 27.43 11.67 L 27.85 11.51 L 29.40 10.89 L 29.89 10.70 L 31.41 10.23 L 31.94 10.21 L 32.30 10.33 L 32.65 10.89 L 32.75 12.18 L 32.56 13.67 L 32.16 15.40 L 31.58 17.09 L 30.94 18.43 L 30.64 18.66 L 30.26 18.61 L 30.02 18.31 L 30.07 17.93 L 31.09 15.38 L 31.76 12.61 L 31.88 11.50 L 31.80 11.20 L 29.97 11.74 L 28.21 12.45 L 27.77 12.61 L 26.86 12.86 L 26.42 12.76 L 26.27 12.67 L 25.85 12.35 L 25.13 11.75 L 24.65 11.37 L 24.02 10.90 L 23.36 10.48 L 22.67 10.12 L 21.37 9.58 L 20.47 9.25 L 19.89 8.99 L 19.62 8.72 L 19.36 7.99 L 19.20 7.39 L 18.87 5.95 L 18.80 5.66 L 18.31 4.06 L 18.08 3.68 L 17.84 3.77 L 16.82 4.66 L 13.94 7.85 L 13.60 8.03 L 13.24 7.92 L 13.06 7.58 L 13.17 7.21 L 13.84 6.42 L 15.64 4.42 L 16.82 3.33 L 17.92 2.73 L 18.58 2.81 L 19.09 3.38 L 19.64 4.91 Z" fill="#333333" fill-rule="nonzero" group-id="1,2,3" id="路径-17" node-id="8" stroke="none" target-height="15.93" target-width="19.689999" target-x="13.06" target-y="2.73"></path><g node-id="35"><path d="M 32.06 19.62 L 31.84 19.30 L 31.46 19.24 L 31.15 19.46 L 31.08 19.83 L 31.55 23.02 L 31.50 25.86 L 30.99 28.42 L 30.04 30.76 L 28.63 32.91 L 27.24 34.29 L 25.66 35.15 L 23.83 35.56 L 21.66 35.46 L 19.03 34.76 L 15.82 33.29 L 15.44 33.25 L 15.15 33.49 L 15.11 33.87 L 15.35 34.17 L 18.76 35.73 L 21.60 36.46 L 23.98 36.55 L 26.01 36.08 L 27.81 35.10 L 29.41 33.53 L 30.92 31.21 L 31.95 28.71 L 32.49 25.99 L 32.55 22.98 L 32.06 19.62 Z" fill="#333333" fill-rule="nonzero" group-id="1,2,3,7" id="路径-18备份" node-id="9" stroke="none" target-height="17.31" target-width="17.439999" target-x="15.11" target-y="19.24"></path></g><g node-id="36"><path d="M 32.39 31.57 L 32.30 31.54 L 28.34 30.40 L 27.96 30.45 L 27.72 30.75 L 27.74 31.09 L 27.98 31.33 L 28.06 31.36 L 32.03 32.50 L 32.41 32.45 L 32.64 32.15 L 32.62 31.81 L 32.39 31.57 Z" fill="#333333" fill-rule="nonzero" group-id="1,2,3,8" id="直线-2备份-2" node-id="11" stroke="none" target-height="2.1000004" target-width="4.92" target-x="27.72" target-y="30.4"></path><path d="M 27.75 31.78 L 27.38 31.69 L 27.05 31.88 L 26.95 32.21 L 27.08 32.52 L 27.15 32.58 L 30.36 35.01 L 30.73 35.11 L 31.06 34.92 L 31.16 34.59 L 31.03 34.28 L 30.97 34.22 L 27.75 31.78 Z" fill="#333333" fill-rule="nonzero" group-id="1,2,3,8" id="直线-2备份-3" node-id="12" stroke="none" target-height="3.42" target-width="4.209999" target-x="26.95" target-y="31.69"></path></g><path d="M 22.05 32.53 L 22.81 32.78 L 23.57 32.73 L 24.25 32.40 L 24.78 31.80 L 25.04 31.04 L 24.98 30.28 L 24.65 29.60 L 24.05 29.07 L 23.29 28.81 L 22.54 28.87 L 21.85 29.20 L 21.32 29.80 L 21.07 30.56 L 21.12 31.32 L 21.45 32.00 L 22.05 32.53 Z" fill="#f6b2b1" fill-rule="evenodd" group-id="1,2,3" id="椭圆形备份-7" node-id="13" stroke="none" target-height="3.9699993" target-width="3.9700012" target-x="21.07" target-y="28.81"></path><path d="M 21.52 28.18 L 22.28 28.28 L 22.89 27.82 L 22.99 27.06 L 22.52 26.45 L 21.76 26.35 L 21.16 26.82 L 21.06 27.57 L 21.52 28.18 Z" fill="#333333" fill-rule="evenodd" group-id="1,2,3" id="椭圆形备份-5" node-id="14" stroke="none" target-height="1.9300003" target-width="1.9300003" target-x="21.06" target-y="26.35"></path><path d="M 15.39 24.07 L 16.07 24.26 L 16.39 24.06 L 16.39 23.69 L 15.89 23.20 L 15.24 23.02 L 14.93 23.22 L 14.91 23.59 L 15.39 24.07 Z" fill="#333333" fill-rule="evenodd" group-id="1,2,3" id="椭圆形备份-8" node-id="15" stroke="none" target-height="1.2399998" target-width="1.4799995" target-x="14.91" target-y="23.02"></path><path d="M 15.47 24.80 L 15.04 25.28 L 14.49 25.55 L 13.88 25.59 L 13.26 25.39 L 13.11 25.28 L 12.91 24.95 L 13.00 24.58 L 13.29 24.40 L 13.63 24.43 L 13.76 24.52 L 14.19 24.59 L 14.55 24.37 L 14.60 24.30 L 15.04 23.54 L 15.34 23.31 L 15.72 23.36 L 15.94 23.62 L 15.94 23.96 L 15.91 24.04 L 15.47 24.80 Z" fill="#333333" fill-rule="nonzero" group-id="1,2,3,9" id="矩形" node-id="16" stroke="none" target-height="2.2800007" target-width="3.0299997" target-x="12.91" target-y="23.31"></path><path d="M 18.29 26.06 L 17.76 26.66 L 17.07 26.99 L 16.31 27.04 L 15.55 26.79 L 14.98 26.29 L 14.64 25.64 L 14.56 24.92 L 14.75 24.19 L 14.82 24.06 L 15.13 23.52 L 15.44 23.28 L 15.82 23.33 L 16.04 23.60 L 16.04 23.94 L 16.00 24.02 L 15.69 24.56 L 15.59 25.32 L 16.05 25.92 L 16.76 26.04 L 17.36 25.65 L 17.42 25.56 L 17.73 25.02 L 18.04 24.78 L 18.41 24.83 L 18.64 25.10 L 18.64 25.44 L 18.60 25.52 L 18.29 26.06 Z" fill="#333333" fill-rule="nonzero" group-id="1,2,3,10" id="矩形备份-11" node-id="17" stroke="none" target-height="3.7600002" target-width="4.079999" target-x="14.56" target-y="23.28"></path><path d="M 17.13 5.76 L 16.59 5.93 L 15.67 6.77 L 14.87 7.69 L 14.66 8.11 L 14.68 8.34 L 15.44 8.57 L 16.72 8.63 L 17.58 8.41 L 17.69 7.57 L 17.48 6.39 L 17.13 5.76 Z" fill="#f6b2b1" fill-rule="evenodd" group-id="1,2,3" id="路径-19" node-id="18" stroke="none" target-height="2.87" target-width="3.0300007" target-x="14.66" target-y="5.76"></path><path d="M 30.44 13.44 L 30.56 13.99 L 30.29 15.21 L 29.89 16.36 L 29.64 16.76 L 29.43 16.86 L 28.85 16.31 L 28.16 15.23 L 27.92 14.38 L 28.59 13.86 L 29.72 13.46 L 30.44 13.44 Z" fill="#f6b2b1" fill-rule="evenodd" group-id="1,2,3,11" id="路径-19备份" node-id="19" stroke="none" target-height="3.420001" target-width="2.6399994" target-x="27.92" target-y="13.44"></path></g><path d="M 13.00 7.18 L 14.00 7.18 L 14.00 40.18 L 13.00 40.18 Z" fill="#333333" fill-rule="evenodd" group-id="1,2" id="矩形" node-id="20" stroke="none" target-height="33" target-width="1" target-x="13" target-y="7.18"></path><path d="M 37.12 16.51 L 38.12 17.42 L 38.29 17.76 L 38.16 18.12 L 38.01 18.23 L 34.95 19.79 L 34.59 19.83 L 34.30 19.63 L 34.22 19.50 L 34.14 19.19 L 34.27 18.88 L 36.42 16.55 L 36.76 16.39 L 37.12 16.51 Z" fill="#333333" fill-rule="evenodd" group-id="1,2" id="路径-22" node-id="21" stroke="none" target-height="3.4400005" target-width="4.1500015" target-x="34.14" target-y="16.39"></path><path d="M 37.65 26.34 L 38.65 25.43 L 38.81 25.09 L 38.68 24.73 L 38.54 24.62 L 35.47 23.06 L 35.12 23.02 L 34.83 23.22 L 34.74 23.35 L 34.66 23.66 L 34.79 23.97 L 36.94 26.30 L 37.29 26.46 L 37.65 26.34 Z" fill="#333333" fill-rule="evenodd" group-id="1,2,4" id="路径-22备份-2" node-id="22" stroke="none" target-height="3.4399986" target-width="4.1500015" target-x="34.66" target-y="23.02"></path><path d="M 39.59 20.25 L 40.30 21.86 L 40.31 22.24 L 40.04 22.52 L 39.77 22.56 L 35.34 21.97 L 35.06 21.84 L 34.91 21.56 L 34.87 21.30 L 34.95 20.94 L 35.26 20.73 L 39.03 19.96 L 39.37 20.01 L 39.59 20.25 Z" fill="#333333" fill-rule="evenodd" group-id="1,2,5" id="路径-22备份" node-id="23" stroke="none" target-height="2.6000004" target-width="5.4400024" target-x="34.87" target-y="19.96"></path><path d="M 18.66 35.42 L 19.61 35.72 L 18.71 37.57 L 17.48 38.85 L 15.88 39.66 L 13.79 40.00 L 13.50 40.00 L 13.50 39.00 L 15.34 38.78 L 16.74 38.15 L 17.80 37.14 L 18.57 35.66 L 18.66 35.42 Z" fill="#333333" fill-rule="nonzero" group-id="1,2" id="路径-23" node-id="24" stroke="none" target-height="4.580002" target-width="6.1100006" target-x="13.5" target-y="35.42"></path><path d="M 15.66 36.65 L 16.10 37.16 L 16.38 37.83 L 16.42 38.53 L 16.17 39.11 L 15.67 39.45 L 15.04 39.49 L 14.39 39.29 L 13.81 38.94 L 13.33 38.44 L 12.97 37.81 L 12.85 37.16 L 13.06 36.59 L 13.60 36.24 L 14.31 36.16 L 15.05 36.31 L 15.66 36.65 Z M 15.03 37.42 L 14.34 37.16 L 13.84 37.22 L 13.95 37.58 L 14.43 38.16 L 15.05 38.48 L 15.40 38.48 L 15.39 38.00 L 15.03 37.42 Z" fill="#333333" fill-rule="nonzero" group-id="1,2,6" id="椭圆形备份-11" node-id="25" stroke="none" target-height="3.3300018" target-width="3.5699997" target-x="12.85" target-y="36.16"></path></g></g></svg>